<svg id="svg" xmlns="http://www.w3.org/2000/svg" xmlns:xlink="http://www.w3.org/1999/xlink" width="400" height="255.62499999999997" viewBox="0, 0, 400,255.62499999999997"><g id="svgg"><path id="path0" d="M272.500 50.817 C 271.727 51.078,270.498 51.564,269.769 51.896 C 269.040 52.228,268.332 52.500,268.195 52.500 C 267.033 52.500,265.018 55.579,265.005 57.374 C 265.002 57.734,264.737 58.333,264.415 58.704 C 263.706 59.521,263.286 62.258,263.739 63.105 C 263.917 63.437,264.063 63.982,264.063 64.316 C 264.063 64.650,264.292 65.114,264.573 65.347 C 264.997 65.699,265.053 66.195,264.903 68.311 C 264.644 71.989,265.374 73.191,268.281 73.866 C 270.821 74.456,270.783 74.399,270.767 77.584 C 270.756 79.698,270.902 80.815,271.315 81.766 C 271.985 83.312,271.966 88.043,271.287 88.862 C 270.946 89.273,270.986 89.502,271.533 90.272 C 272.488 91.612,272.040 93.272,270.237 95.075 C 269.935 95.378,269.688 95.819,269.688 96.055 C 269.688 96.292,269.473 96.664,269.212 96.881 C 268.922 97.121,268.813 97.518,268.932 97.894 C 269.106 98.441,268.970 98.911,268.152 100.594 C 268.035 100.835,266.048 101.707,263.735 102.532 C 261.423 103.357,256.719 105.037,253.281 106.267 C 246.863 108.562,241.507 110.275,237.656 111.264 C 236.453 111.574,233.289 112.404,230.625 113.110 C 223.005 115.130,214.257 116.875,211.749 116.876 C 210.529 116.876,207.844 117.157,205.781 117.500 C 196.921 118.972,194.804 117.263,201.336 113.911 C 206.623 111.198,207.717 109.239,204.930 107.479 C 202.966 106.239,199.053 107.069,189.067 110.846 C 176.061 115.765,173.797 116.287,154.219 118.875 C 152.500 119.102,149.931 119.219,148.511 119.135 C 146.092 118.991,145.801 119.044,143.941 119.960 C 142.848 120.497,141.733 120.937,141.462 120.938 C 141.191 120.938,138.817 121.387,136.188 121.936 C 131.606 122.893,131.086 122.937,123.750 122.970 C 115.359 123.008,113.647 123.253,109.063 125.068 C 107.409 125.723,106.022 126.032,104.353 126.118 C 101.665 126.256,98.237 127.276,95.023 128.894 C 92.496 130.167,90.337 130.679,83.750 131.565 C 81.086 131.924,78.414 132.345,77.813 132.501 C 77.211 132.657,75.172 132.932,73.281 133.113 C 58.452 134.529,54.629 138.539,56.583 150.625 C 57.750 157.839,66.123 158.420,83.594 152.499 C 88.701 150.769,92.800 149.942,103.717 148.439 C 110.364 147.525,114.928 146.531,123.125 144.214 C 138.104 139.980,139.042 139.808,141.191 140.906 L 142.539 141.595 146.348 140.805 C 148.442 140.370,151.492 139.648,153.125 139.199 C 154.797 138.740,157.365 138.309,159.003 138.211 C 161.750 138.048,162.021 137.967,163.847 136.766 C 166.186 135.229,168.439 134.994,176.875 135.411 C 181.573 135.642,188.235 135.694,198.281 135.576 C 200.344 135.552,203.859 135.578,206.094 135.635 C 210.210 135.740,212.975 135.295,220.625 133.293 C 228.721 131.174,235.349 131.420,241.719 134.073 C 251.307 138.067,252.851 138.224,256.130 135.543 C 256.626 135.138,257.594 134.641,258.281 134.439 C 263.597 132.879,262.162 130.379,256.510 131.354 C 253.742 131.832,253.300 131.835,251.351 131.391 C 247.701 130.559,242.291 128.778,241.520 128.154 L 240.783 127.557 241.564 127.230 C 241.993 127.050,244.664 126.607,247.500 126.245 C 250.336 125.882,253.500 125.440,254.531 125.262 C 255.563 125.085,259.008 124.540,262.188 124.051 C 270.865 122.719,288.303 119.376,289.080 118.896 C 291.326 117.507,305.653 118.672,312.500 120.800 C 320.317 123.230,324.502 122.406,325.737 118.196 C 327.090 113.585,326.839 112.342,324.293 111.052 C 323.054 110.424,322.833 110.195,323.127 109.841 C 323.581 109.295,323.598 106.905,323.157 105.552 C 322.843 104.586,323.385 101.511,324.203 99.616 C 324.369 99.233,324.155 98.795,323.468 98.108 C 322.936 97.575,322.500 97.067,322.500 96.978 C 322.500 96.890,322.227 96.470,321.892 96.045 C 321.558 95.620,321.358 95.082,321.448 94.848 C 321.537 94.615,321.466 94.153,321.289 93.822 C 321.073 93.419,321.070 93.117,321.281 92.907 C 321.491 92.696,321.384 92.036,320.954 90.906 C 320.601 89.978,320.313 89.197,320.313 89.170 C 320.313 89.143,320.578 89.190,320.902 89.275 C 321.613 89.461,322.084 88.834,321.598 88.348 C 321.073 87.823,321.178 87.500,321.875 87.500 C 322.607 87.500,322.708 87.022,322.031 86.762 C 320.976 86.357,321.491 85.340,322.656 85.529 C 323.611 85.684,323.750 85.625,323.750 85.059 C 323.750 84.703,323.891 84.325,324.063 84.219 C 324.234 84.113,324.375 83.682,324.375 83.263 C 324.375 82.843,324.516 82.500,324.688 82.500 C 324.987 82.500,325.133 82.965,325.021 83.562 C 324.993 83.717,325.071 84.068,325.196 84.344 C 325.320 84.619,325.446 85.477,325.474 86.250 C 325.526 87.640,326.633 92.745,327.823 97.082 C 328.161 98.314,328.442 99.579,328.447 99.895 C 328.453 100.211,328.875 101.309,329.385 102.336 C 329.895 103.363,330.313 104.537,330.313 104.945 C 330.313 105.353,330.511 106.130,330.754 106.672 C 331.473 108.273,331.933 109.966,331.736 110.285 C 331.635 110.448,331.695 110.670,331.870 110.778 C 332.045 110.886,332.190 111.353,332.192 111.815 C 332.195 112.278,332.423 113.289,332.700 114.063 C 333.318 115.786,333.438 122.754,332.926 127.188 C 331.831 136.685,322.595 144.271,322.481 135.767 C 322.428 131.776,321.540 131.313,319.598 134.262 C 315.684 140.205,320.124 145.731,327.961 144.671 C 336.297 143.544,343.649 129.956,342.220 118.318 C 342.027 116.751,341.734 114.273,341.568 112.813 C 341.171 109.305,340.749 107.214,339.867 104.375 C 339.467 103.086,338.834 100.133,338.460 97.813 C 338.087 95.492,337.644 93.153,337.477 92.615 C 337.310 92.076,337.116 90.670,337.046 89.489 C 336.976 88.309,336.750 86.922,336.544 86.406 C 336.339 85.891,336.061 84.977,335.928 84.375 C 335.794 83.773,335.473 82.508,335.213 81.563 C 334.954 80.617,334.661 78.930,334.564 77.813 C 334.467 76.695,334.173 75.091,333.912 74.247 C 333.651 73.403,333.438 72.271,333.438 71.730 C 333.438 71.172,333.100 70.289,332.656 69.687 C 332.227 69.105,331.875 68.467,331.875 68.269 C 331.875 67.766,330.945 65.896,330.355 65.213 C 330.086 64.901,329.579 64.138,329.229 63.518 C 328.377 62.007,324.811 59.554,320.000 57.170 C 313.969 54.182,314.659 54.323,305.184 54.140 C 292.115 53.888,286.217 54.666,284.187 56.910 C 283.379 57.803,282.955 57.629,282.488 56.212 C 281.238 52.426,276.044 49.620,272.500 50.817 M241.719 59.215 C 239.999 60.023,237.918 62.414,236.866 64.791 C 236.511 65.593,236.094 66.250,235.939 66.250 C 235.453 66.250,234.063 67.705,234.063 68.213 C 234.063 68.480,233.944 68.745,233.799 68.802 C 233.231 69.027,232.091 73.778,231.778 77.226 C 230.997 85.827,234.481 90.044,242.323 89.989 C 244.012 89.977,244.636 89.717,246.223 88.364 C 251.749 83.650,254.389 62.482,249.756 60.041 C 247.877 59.051,243.110 58.561,241.719 59.215 M246.680 67.121 C 246.632 72.525,245.468 78.006,243.438 82.393 C 242.471 84.480,240.426 86.982,239.935 86.678 C 238.350 85.699,238.080 75.553,239.584 73.505 C 239.927 73.038,240.423 72.023,240.687 71.250 C 241.447 69.022,242.893 65.938,243.178 65.938 C 243.321 65.938,243.438 65.710,243.438 65.432 C 243.438 65.155,243.949 64.230,244.575 63.378 C 246.353 60.956,246.730 61.626,246.680 67.121 M248.928 67.849 C 248.984 69.603,248.897 71.289,248.733 71.594 C 248.544 71.947,248.546 72.217,248.737 72.336 C 248.930 72.455,248.931 72.806,248.738 73.313 C 248.375 74.267,248.343 75.625,248.683 75.625 C 248.818 75.625,248.940 75.379,248.954 75.078 C 248.984 74.401,249.314 72.031,249.377 72.031 C 249.502 72.031,249.674 70.595,249.743 68.984 C 249.811 67.369,249.888 67.188,250.501 67.188 C 251.180 67.188,251.757 67.968,251.290 68.256 C 251.156 68.339,251.141 69.146,251.256 70.050 C 251.372 70.953,251.359 72.190,251.227 72.799 C 251.095 73.408,250.920 74.628,250.838 75.509 C 250.755 76.391,250.551 77.375,250.385 77.697 C 250.218 78.018,249.990 78.794,249.877 79.421 C 249.764 80.049,249.411 80.892,249.093 81.296 C 248.775 81.701,248.494 82.136,248.469 82.264 C 248.443 82.392,248.339 82.912,248.238 83.420 C 248.136 83.928,247.788 84.583,247.464 84.876 C 247.140 85.169,246.871 85.634,246.865 85.908 C 246.858 86.318,246.796 86.304,246.521 85.829 C 246.280 85.416,246.283 85.155,246.530 84.907 C 247.123 84.315,246.927 83.797,246.172 83.963 C 245.772 84.050,245.604 84.004,245.781 83.855 C 246.179 83.523,246.271 82.500,245.903 82.500 C 245.750 82.500,245.625 82.684,245.625 82.909 C 245.625 83.134,245.414 83.591,245.155 83.925 C 244.693 84.522,244.689 84.522,244.872 83.906 C 245.379 82.205,245.746 81.562,246.210 81.558 C 246.643 81.554,246.651 81.510,246.261 81.264 C 245.864 81.012,245.873 80.829,246.335 79.862 C 246.745 79.002,246.772 78.750,246.453 78.750 C 246.227 78.750,246.039 78.926,246.035 79.141 C 246.026 79.735,244.653 82.500,244.368 82.500 C 244.083 82.500,244.595 80.927,245.332 79.540 C 245.603 79.029,246.167 78.516,246.584 78.399 C 247.336 78.189,247.337 78.187,246.630 78.156 C 245.996 78.129,245.956 78.049,246.278 77.447 C 246.478 77.075,246.689 76.278,246.747 75.676 C 246.805 75.074,247.030 74.473,247.245 74.339 C 247.461 74.206,247.550 74.008,247.441 73.900 C 247.333 73.791,247.377 73.257,247.538 72.711 C 247.889 71.524,248.132 69.581,248.249 67.031 C 248.431 63.046,248.789 63.476,248.928 67.849 M137.334 65.547 C 137.206 65.848,137.053 66.305,136.995 66.563 C 136.936 66.820,136.541 68.438,136.118 70.156 C 135.694 71.875,135.234 73.969,135.095 74.809 L 134.844 76.337 131.406 77.221 C 123.337 79.298,122.239 80.266,127.375 80.773 C 129.188 80.952,130.009 80.868,131.859 80.317 C 134.676 79.478,134.476 79.086,134.083 84.681 C 133.498 93.012,133.756 97.918,135.215 106.167 C 135.817 109.572,135.470 109.313,140.165 109.856 C 142.494 110.126,142.536 110.081,143.431 106.406 C 143.808 104.859,144.196 103.383,144.294 103.125 C 144.391 102.867,144.529 102.308,144.599 101.883 C 144.670 101.457,144.850 100.962,145.000 100.781 C 145.325 100.389,146.338 97.480,146.194 97.351 C 145.926 97.110,142.980 96.638,142.617 96.777 C 141.125 97.349,140.486 84.829,141.741 79.609 C 141.772 79.480,141.814 79.110,141.836 78.787 C 141.894 77.908,144.474 77.380,150.156 77.085 C 153.723 76.900,148.750 75.388,144.413 75.339 L 142.107 75.313 142.343 73.672 C 142.473 72.770,142.631 71.469,142.694 70.781 C 142.756 70.094,142.895 68.688,143.003 67.656 L 143.198 65.781 141.989 65.803 C 141.325 65.814,140.607 65.693,140.395 65.533 C 140.182 65.373,139.800 65.322,139.545 65.420 C 139.291 65.518,138.999 65.463,138.898 65.299 C 138.591 64.803,137.583 64.963,137.334 65.547 M216.406 67.168 C 215.783 67.421,214.063 69.294,214.063 69.718 C 214.063 69.992,211.374 74.376,210.940 74.810 C 210.728 75.022,210.625 74.230,210.625 72.406 L 210.625 69.688 209.766 69.640 C 208.479 69.569,208.316 69.536,207.888 69.268 C 207.671 69.133,207.226 69.107,206.899 69.211 C 206.571 69.315,206.212 69.254,206.102 69.075 C 205.991 68.896,205.569 68.750,205.163 68.750 C 203.745 68.750,203.519 77.704,204.565 92.500 C 204.608 93.102,204.655 93.875,204.670 94.219 C 204.711 95.171,205.199 95.754,205.997 95.808 C 206.394 95.835,206.930 95.942,207.188 96.046 C 210.341 97.316,211.580 96.365,211.517 92.722 C 211.474 90.269,211.981 87.343,212.679 86.004 C 212.922 85.538,213.122 84.943,213.123 84.683 C 213.124 84.423,213.406 83.685,213.750 83.043 C 214.094 82.402,214.376 81.701,214.378 81.486 C 214.379 81.270,214.718 80.397,215.130 79.546 L 215.880 77.997 216.065 79.467 C 216.167 80.276,216.328 81.563,216.423 82.328 C 216.596 83.718,217.262 84.322,218.383 84.105 C 218.610 84.061,218.995 84.189,219.238 84.391 C 219.481 84.593,219.888 84.678,220.142 84.580 C 220.397 84.482,220.680 84.524,220.772 84.673 C 220.865 84.822,221.186 84.897,221.486 84.840 C 221.786 84.782,222.257 84.725,222.534 84.711 C 222.945 84.692,223.034 84.303,223.025 82.578 C 223.019 81.418,223.050 78.008,223.096 75.000 C 223.207 67.566,223.368 67.974,220.155 67.559 C 218.953 67.403,217.758 67.195,217.500 67.095 C 217.242 66.996,216.750 67.029,216.406 67.168 M139.441 70.391 C 139.264 70.605,139.020 71.344,138.899 72.031 C 138.779 72.719,138.474 73.609,138.222 74.010 C 137.971 74.410,137.842 74.938,137.935 75.181 C 138.029 75.425,137.969 75.625,137.803 75.625 C 137.636 75.625,137.500 75.766,137.500 75.938 C 137.500 76.109,137.698 76.250,137.941 76.250 C 138.193 76.250,138.337 76.485,138.278 76.797 C 138.220 77.098,138.162 77.520,138.149 77.734 C 138.136 77.949,137.914 78.125,137.656 78.125 C 137.398 78.125,137.188 78.281,137.188 78.471 C 137.188 78.661,137.398 78.736,137.656 78.637 C 137.914 78.538,138.125 78.593,138.125 78.760 C 138.125 78.926,137.879 79.065,137.578 79.067 C 137.196 79.071,137.147 79.146,137.415 79.316 C 137.862 79.600,137.856 81.875,137.408 81.875 C 137.237 81.875,137.182 82.348,137.282 82.963 C 137.379 83.561,137.357 84.114,137.232 84.191 C 136.988 84.342,136.786 86.006,136.783 87.891 C 136.782 88.535,136.697 89.063,136.594 89.063 C 136.273 89.064,136.271 92.581,136.593 93.181 C 136.760 93.494,136.787 93.750,136.652 93.750 C 136.517 93.750,136.406 94.593,136.406 95.624 C 136.406 96.655,136.485 97.499,136.581 97.499 C 136.678 97.500,136.743 98.414,136.727 99.531 C 136.711 100.648,136.774 101.563,136.867 101.563 C 136.960 101.563,136.972 102.230,136.895 103.047 L 136.753 104.531 136.488 102.969 C 136.342 102.109,136.176 101.055,136.118 100.625 C 136.060 100.195,135.931 99.633,135.831 99.375 C 135.374 98.198,134.885 87.467,135.255 86.758 C 135.388 86.503,135.638 82.922,135.634 81.328 C 135.633 80.941,135.758 80.625,135.912 80.625 C 136.066 80.625,136.126 80.375,136.046 80.069 C 135.966 79.763,136.072 79.095,136.282 78.584 C 136.491 78.074,136.634 77.480,136.599 77.266 C 136.564 77.051,136.658 76.875,136.808 76.875 C 136.959 76.875,137.086 76.348,137.091 75.703 C 137.097 75.059,137.178 74.250,137.271 73.906 C 137.364 73.563,137.489 73.074,137.548 72.820 C 137.608 72.566,137.832 72.169,138.047 71.938 C 138.262 71.707,138.438 71.270,138.438 70.967 C 138.438 70.298,138.706 70.000,139.309 70.000 C 139.637 70.000,139.674 70.109,139.441 70.391 M141.763 72.734 C 141.681 73.207,141.406 74.156,141.151 74.844 L 140.689 76.094 140.704 75.077 C 140.713 74.518,140.908 73.904,141.138 73.713 C 141.368 73.523,141.474 73.235,141.375 73.075 C 141.176 72.753,141.434 71.875,141.728 71.875 C 141.829 71.875,141.845 72.262,141.763 72.734 M139.519 73.657 C 139.258 74.595,139.185 74.934,139.110 75.547 C 139.084 75.762,138.911 75.938,138.725 75.938 C 138.377 75.938,138.561 74.620,139.111 73.160 C 139.491 72.153,139.825 72.560,139.519 73.657 M210.126 76.250 C 210.501 80.883,210.451 85.938,210.029 85.938 C 209.873 85.938,209.731 84.561,209.714 82.879 C 209.683 79.819,209.535 77.291,209.198 74.063 C 209.037 72.516,209.064 72.406,209.465 72.969 C 209.710 73.313,210.007 74.788,210.126 76.250 M220.766 73.672 C 220.973 74.901,220.736 80.618,220.468 80.886 C 220.009 81.345,219.815 79.032,219.940 74.609 C 220.005 72.312,220.453 71.804,220.766 73.672 M187.344 73.323 C 186.828 73.394,186.104 73.519,185.735 73.599 C 184.958 73.769,183.091 76.454,182.479 78.281 C 182.249 78.969,181.894 79.676,181.691 79.852 C 180.743 80.676,180.042 84.369,180.101 88.232 C 180.213 95.536,183.620 98.845,189.830 97.680 C 191.247 97.414,194.691 93.915,194.894 92.535 C 194.929 92.292,195.083 92.009,195.234 91.906 C 195.386 91.803,195.968 90.910,196.528 89.922 L 197.546 88.125 196.273 88.125 C 195.573 88.125,195.000 87.976,195.000 87.794 C 195.000 87.612,194.846 87.558,194.658 87.675 C 194.383 87.844,193.275 87.474,192.525 86.962 C 192.453 86.913,192.685 86.557,193.042 86.171 C 195.662 83.335,196.265 79.236,194.559 75.862 C 193.667 74.100,193.172 73.723,191.563 73.579 C 191.133 73.540,190.219 73.438,189.531 73.351 C 188.844 73.264,187.859 73.251,187.344 73.323 M222.302 74.922 C 222.215 75.738,222.152 76.828,222.162 77.344 C 222.180 78.225,222.153 78.246,221.727 77.691 C 221.400 77.265,221.361 76.939,221.586 76.519 C 221.814 76.093,221.789 75.931,221.495 75.913 C 221.231 75.897,221.215 75.839,221.448 75.743 C 221.658 75.656,221.743 75.158,221.657 74.517 C 221.546 73.696,221.625 73.438,221.987 73.438 C 222.367 73.438,222.430 73.732,222.302 74.922 M206.535 75.391 C 206.719 75.949,206.937 77.082,207.020 77.907 C 207.103 78.733,207.247 79.531,207.340 79.682 C 207.588 80.083,207.529 85.248,207.231 89.159 C 207.207 89.470,207.064 89.648,206.914 89.555 C 206.659 89.398,206.545 88.663,206.511 86.953 C 206.503 86.566,206.335 86.248,206.139 86.245 C 205.880 86.242,205.877 86.177,206.129 86.011 C 206.666 85.656,206.854 83.750,206.352 83.750 C 206.118 83.750,205.938 83.410,205.938 82.969 C 205.938 82.539,206.078 82.188,206.250 82.188 C 206.422 82.188,206.563 81.906,206.563 81.563 C 206.563 81.219,206.403 80.938,206.209 80.938 C 205.977 80.938,205.913 80.508,206.023 79.688 C 206.115 79.000,206.098 78.437,205.986 78.436 C 205.873 78.435,205.775 77.521,205.767 76.405 C 205.751 74.178,206.020 73.823,206.535 75.391 M79.844 74.977 C 74.465 76.269,67.123 83.030,68.930 85.026 C 69.496 85.651,71.696 86.397,72.149 86.118 C 73.068 85.550,73.488 86.748,73.020 88.608 C 72.559 90.445,72.141 92.690,72.034 93.906 C 71.047 105.126,71.052 115.647,72.046 118.182 C 72.674 119.786,73.817 120.683,74.440 120.060 C 74.717 119.783,74.932 119.812,75.342 120.183 C 75.691 120.499,76.572 120.689,77.857 120.725 L 79.835 120.781 79.733 117.311 C 79.677 115.402,79.729 113.056,79.849 112.098 L 80.067 110.356 82.124 109.162 C 83.256 108.506,84.741 107.441,85.423 106.797 C 86.106 106.152,86.750 105.625,86.854 105.625 C 87.057 105.625,92.437 100.368,93.768 98.869 C 99.481 92.435,100.295 82.751,95.478 78.511 C 92.553 75.936,83.948 73.991,79.844 74.977 M165.156 76.860 C 164.247 77.234,161.205 81.591,160.290 83.828 C 159.672 85.341,159.375 84.758,159.375 82.031 L 159.375 79.375 158.516 79.327 C 157.081 79.248,156.928 79.219,156.694 78.986 C 156.571 78.862,156.139 78.844,155.735 78.946 C 155.294 79.056,155.000 78.991,155.000 78.784 C 155.000 78.247,153.528 78.376,153.315 78.931 C 152.556 80.909,152.403 89.788,153.000 97.188 C 153.676 105.574,153.707 105.705,155.000 105.576 C 155.258 105.550,155.680 105.614,155.938 105.719 C 158.837 106.893,160.486 105.896,160.230 103.125 C 160.105 101.775,160.472 98.477,160.856 97.500 C 160.957 97.242,161.061 96.961,161.087 96.875 C 161.929 94.104,162.264 93.117,162.624 92.344 C 162.864 91.828,163.380 90.668,163.771 89.767 C 164.161 88.865,164.515 88.162,164.558 88.204 C 164.600 88.247,164.779 89.330,164.957 90.611 C 165.288 93.002,166.095 94.222,167.094 93.839 C 167.322 93.752,167.715 93.852,167.969 94.063 C 168.222 94.273,168.666 94.354,168.955 94.243 C 169.245 94.132,169.572 94.188,169.683 94.368 C 170.425 95.568,171.743 94.311,171.752 92.396 C 171.757 91.336,171.793 87.938,171.832 84.844 C 171.929 77.183,172.082 77.583,168.952 77.291 C 167.799 77.183,166.781 76.975,166.690 76.829 C 166.491 76.506,165.991 76.516,165.156 76.860 M247.690 77.369 C 247.410 78.098,247.459 78.812,247.775 78.617 C 248.129 78.398,248.426 76.875,248.115 76.875 C 247.985 76.875,247.794 77.097,247.690 77.369 M302.322 79.002 C 302.339 80.191,302.604 80.937,303.551 82.471 C 304.214 83.546,305.391 85.645,306.165 87.135 C 306.939 88.625,307.745 90.055,307.956 90.313 C 309.594 92.311,311.327 97.283,310.834 98.569 C 310.735 98.826,309.945 99.397,309.077 99.836 C 307.390 100.691,307.180 101.037,308.047 101.530 C 308.557 101.820,308.548 101.888,307.914 102.529 L 307.234 103.217 306.622 102.210 C 306.285 101.656,305.789 100.004,305.520 98.539 C 304.796 94.596,304.588 94.375,301.589 94.375 L 299.131 94.375 298.932 91.953 C 298.822 90.621,298.624 87.633,298.492 85.313 C 298.330 82.481,298.076 80.696,297.719 79.884 C 297.427 79.218,297.188 78.566,297.188 78.435 C 297.188 78.043,299.020 77.896,299.389 78.258 C 299.632 78.498,299.835 78.453,300.099 78.102 C 301.350 76.439,302.291 76.820,302.322 79.002 M88.829 78.203 C 91.281 80.811,91.806 84.616,90.309 88.923 C 89.775 90.461,89.253 92.000,89.149 92.344 C 89.046 92.688,88.875 93.039,88.771 93.125 C 88.666 93.211,87.956 94.250,87.194 95.434 C 86.432 96.617,85.380 98.081,84.857 98.687 C 83.086 100.738,80.891 102.870,80.722 102.702 C 80.513 102.492,81.181 96.495,81.588 94.941 C 81.753 94.306,81.952 93.111,82.029 92.284 C 82.359 88.743,82.864 85.277,83.443 82.584 C 84.207 79.028,84.207 79.063,83.411 79.063 C 82.296 79.063,82.933 78.335,84.553 77.760 C 86.871 76.938,87.722 77.026,88.829 78.203 M140.128 79.743 C 139.994 80.314,139.919 81.027,139.962 81.328 C 140.005 81.629,139.896 81.875,139.721 81.875 C 139.398 81.875,139.530 79.258,139.881 78.689 C 140.231 78.124,140.370 78.716,140.128 79.743 M190.217 80.291 C 189.965 82.419,188.255 85.547,187.666 84.957 C 187.553 84.845,188.213 82.840,189.426 79.609 C 189.961 78.185,190.420 78.580,190.217 80.291 M185.938 80.781 C 185.756 81.259,185.537 81.579,185.451 81.493 C 185.365 81.407,185.444 80.946,185.625 80.469 C 185.806 79.991,186.025 79.671,186.111 79.757 C 186.197 79.843,186.119 80.304,185.938 80.781 M182.052 85.489 C 182.168 89.821,182.033 91.937,181.818 89.124 C 181.776 88.575,181.623 88.125,181.476 88.125 C 181.122 88.125,181.322 86.781,181.719 86.489 C 181.916 86.344,181.897 86.258,181.666 86.255 C 181.413 86.251,181.331 85.597,181.398 84.141 C 181.452 82.980,181.511 81.621,181.529 81.120 C 181.548 80.618,181.643 80.289,181.741 80.387 C 181.839 80.485,181.979 82.781,182.052 85.489 M158.415 83.125 C 158.831 83.125,159.196 88.793,159.089 93.594 C 159.043 95.640,159.012 95.731,158.605 95.000 C 158.366 94.570,158.265 94.184,158.382 94.141 C 158.616 94.055,158.586 91.771,158.302 88.003 C 157.939 83.210,157.863 81.727,158.015 82.422 C 158.099 82.809,158.279 83.125,158.415 83.125 M185.344 82.459 C 185.526 82.173,185.617 82.419,185.620 83.203 C 185.625 84.339,185.215 84.780,184.894 83.984 C 184.808 83.770,184.726 84.038,184.712 84.580 C 184.691 85.444,184.775 85.548,185.391 85.416 C 186.040 85.278,186.052 85.300,185.552 85.711 C 185.254 85.955,185.113 86.259,185.239 86.386 C 185.365 86.513,185.469 87.441,185.469 88.449 C 185.469 90.321,185.040 90.596,184.914 88.805 C 184.875 88.260,184.750 87.813,184.635 87.813 C 184.521 87.813,184.429 86.723,184.431 85.391 C 184.433 84.059,184.405 82.828,184.368 82.656 C 184.217 81.949,184.416 81.757,184.734 82.303 C 185.008 82.775,185.125 82.805,185.344 82.459 M169.532 83.516 C 169.741 84.941,169.515 90.277,169.233 90.559 C 168.907 90.885,168.788 90.444,168.745 88.743 C 168.603 83.167,169.047 80.218,169.532 83.516 M114.375 83.469 C 112.607 84.525,109.688 88.144,109.688 89.279 C 109.688 89.496,109.301 89.920,108.828 90.223 C 107.729 90.926,107.210 91.576,107.197 92.266 C 107.192 92.566,107.063 92.813,106.911 92.813 C 106.598 92.813,106.573 92.882,105.510 96.710 C 103.426 104.212,105.643 112.324,110.040 113.290 C 116.835 114.783,119.052 114.002,121.486 109.260 C 125.647 101.153,126.531 86.524,122.999 84.210 C 121.143 82.994,115.920 82.545,114.375 83.469 M93.667 87.081 C 93.514 88.389,93.238 89.827,93.053 90.277 C 92.868 90.726,92.684 91.246,92.644 91.432 C 92.506 92.071,90.789 95.469,90.500 95.675 C 90.341 95.788,90.034 96.281,89.818 96.769 C 89.602 97.257,89.414 97.457,89.400 97.214 C 89.386 96.971,89.892 95.705,90.525 94.402 C 91.157 93.098,91.643 91.908,91.605 91.758 C 91.567 91.607,91.754 91.244,92.019 90.951 C 92.284 90.658,92.436 90.353,92.356 90.273 C 92.276 90.193,92.416 89.443,92.668 88.608 C 92.919 87.772,93.136 86.161,93.150 85.028 C 93.174 83.128,93.205 83.036,93.560 83.835 C 93.839 84.466,93.868 85.350,93.667 87.081 M171.066 84.609 C 170.989 85.426,170.928 86.516,170.929 87.031 C 170.931 87.913,170.904 87.934,170.477 87.379 C 170.150 86.953,170.111 86.627,170.336 86.207 C 170.564 85.781,170.539 85.618,170.245 85.600 C 169.981 85.584,169.965 85.526,170.198 85.430 C 170.408 85.344,170.493 84.846,170.407 84.205 C 170.297 83.386,170.376 83.125,170.733 83.125 C 171.107 83.125,171.176 83.433,171.066 84.609 M155.334 84.900 C 156.201 87.181,156.474 101.393,155.612 99.375 C 155.448 98.990,155.328 97.491,155.306 95.547 C 155.293 94.387,155.149 93.438,154.985 93.438 C 154.821 93.438,154.688 93.086,154.688 92.656 C 154.688 92.227,154.828 91.875,155.000 91.875 C 155.172 91.875,155.298 91.277,155.281 90.547 C 155.254 89.380,155.217 89.314,154.974 90.000 C 154.754 90.622,154.723 90.510,154.819 89.453 C 154.886 88.723,154.806 88.125,154.642 88.125 C 154.463 88.125,154.453 87.929,154.618 87.636 C 154.768 87.366,154.831 86.452,154.758 85.604 C 154.609 83.901,154.845 83.613,155.334 84.900 M139.688 84.688 C 139.688 84.859,139.519 85.000,139.313 85.000 C 139.021 85.000,139.021 85.083,139.313 85.375 C 139.755 85.817,139.802 86.250,139.408 86.250 C 139.013 86.250,138.736 85.400,138.949 84.844 C 139.151 84.318,139.688 84.205,139.688 84.688 M285.044 84.871 C 285.685 85.101,286.477 86.670,286.714 88.181 C 286.823 88.873,287.292 89.743,287.893 90.368 C 288.726 91.235,288.896 91.664,288.927 92.969 C 288.948 93.828,289.066 94.763,289.190 95.045 C 289.315 95.328,289.372 96.101,289.318 96.764 L 289.219 97.969 285.238 99.978 C 280.739 102.249,280.595 102.245,281.571 99.890 C 282.354 98.000,282.244 97.188,281.205 97.188 L 280.516 97.188 281.170 96.484 C 281.530 96.098,281.922 95.254,282.041 94.609 C 282.168 93.922,282.436 93.438,282.691 93.438 C 282.930 93.438,283.125 93.156,283.125 92.813 C 283.125 92.469,283.281 92.188,283.471 92.188 C 283.694 92.188,283.739 91.882,283.597 91.328 C 283.053 89.212,283.483 84.183,284.179 84.518 C 284.373 84.611,284.762 84.770,285.044 84.871 M119.366 86.696 C 119.525 87.114,119.658 88.766,119.662 90.368 C 119.667 91.970,119.676 93.664,119.683 94.133 C 119.725 96.878,116.710 107.500,115.888 107.500 C 115.743 107.500,115.625 107.688,115.625 107.917 C 115.625 108.146,115.073 108.931,114.399 109.661 L 113.173 110.989 112.706 110.260 C 111.130 107.803,111.406 96.875,113.044 96.875 C 113.189 96.875,113.477 96.241,113.684 95.467 C 114.380 92.865,118.111 85.970,118.836 85.946 C 118.969 85.941,119.208 86.279,119.366 86.696 M76.326 87.969 C 76.244 88.398,76.038 88.750,75.868 88.750 C 75.697 88.750,75.643 88.528,75.748 88.256 C 75.852 87.984,75.938 87.632,75.938 87.474 C 75.938 87.317,76.059 87.188,76.207 87.188 C 76.355 87.188,76.409 87.539,76.326 87.969 M191.875 88.125 C 191.875 88.469,191.594 89.031,191.250 89.375 C 190.906 89.719,190.702 90.000,190.796 90.000 C 191.013 90.000,189.386 92.358,188.326 93.580 C 187.378 94.675,187.160 94.536,186.875 92.657 C 186.672 91.319,187.074 90.303,187.599 90.828 C 187.791 91.020,189.822 89.478,191.094 88.177 C 191.879 87.373,191.875 87.374,191.875 88.125 M80.128 88.672 C 80.020 89.145,79.741 90.234,79.507 91.094 C 79.273 91.953,78.997 93.635,78.894 94.830 C 78.791 96.026,78.623 97.140,78.520 97.306 C 78.006 98.138,78.048 108.075,78.581 111.484 C 78.751 112.575,78.728 113.125,78.512 113.125 C 78.334 113.125,78.180 112.668,78.171 112.109 C 78.162 111.551,78.066 110.742,77.959 110.313 C 77.579 108.796,77.492 107.943,77.460 105.469 C 77.424 102.641,77.272 101.786,76.853 102.045 C 76.693 102.144,76.563 101.997,76.563 101.719 C 76.563 101.441,76.688 101.291,76.842 101.386 C 77.241 101.632,77.576 100.696,77.674 99.063 C 77.853 96.094,78.178 93.907,78.883 90.938 C 78.985 90.508,79.144 89.746,79.236 89.245 C 79.435 88.154,79.623 87.813,80.024 87.813 C 80.191 87.813,80.237 88.195,80.128 88.672 M97.188 88.575 C 97.188 88.823,97.055 89.107,96.894 89.207 C 96.732 89.307,96.622 89.104,96.648 88.757 C 96.702 88.043,97.188 87.880,97.188 88.575 M76.990 89.766 C 76.877 90.496,76.668 91.409,76.526 91.794 C 76.384 92.179,76.350 92.709,76.450 92.970 C 76.550 93.232,76.485 93.624,76.304 93.841 C 76.123 94.059,76.018 94.725,76.069 95.322 C 76.120 95.918,76.080 96.547,75.979 96.719 C 75.613 97.346,75.510 98.684,75.489 103.047 C 75.478 105.496,75.381 107.500,75.273 107.500 C 75.165 107.500,75.116 108.232,75.164 109.126 C 75.234 110.418,75.183 110.629,74.917 110.153 C 74.732 109.823,74.545 108.778,74.501 107.831 C 74.457 106.884,74.270 106.059,74.085 105.997 C 73.901 105.936,73.750 105.467,73.750 104.956 C 73.750 104.355,73.873 104.101,74.096 104.239 C 74.335 104.387,74.366 104.225,74.197 103.711 C 73.762 102.395,74.661 92.346,75.351 90.805 C 75.575 90.305,75.603 90.403,75.473 91.231 C 75.308 92.287,75.315 92.295,75.888 91.699 C 76.209 91.366,76.373 91.054,76.251 91.005 C 75.958 90.887,76.619 88.438,76.943 88.438 C 77.082 88.438,77.103 89.035,76.990 89.766 M121.781 91.627 C 121.497 91.808,121.503 91.867,121.806 91.870 C 122.102 91.874,122.168 92.345,122.058 93.672 C 121.642 98.726,121.606 99.836,121.889 98.908 C 122.257 97.702,122.830 93.442,122.846 91.797 C 122.850 91.436,123.096 91.250,123.568 91.250 C 124.241 91.250,124.286 91.374,124.288 93.243 C 124.289 94.339,124.388 95.393,124.507 95.587 C 124.627 95.780,124.594 95.938,124.434 95.938 C 124.274 95.938,124.044 96.940,123.924 98.165 C 123.803 99.390,123.570 100.744,123.407 101.175 C 123.243 101.606,123.039 102.515,122.953 103.196 C 122.868 103.877,122.590 104.642,122.336 104.896 C 122.083 105.150,121.857 105.488,121.836 105.647 C 121.814 105.807,121.768 106.043,121.732 106.172 C 121.697 106.301,121.552 106.828,121.410 107.344 C 121.269 107.859,120.848 108.568,120.476 108.918 C 120.104 109.268,119.861 109.760,119.935 110.011 C 120.010 110.263,119.856 110.188,119.591 109.844 C 119.180 109.309,119.175 109.183,119.556 108.969 C 120.229 108.590,120.088 108.126,119.297 108.120 C 118.783 108.117,118.708 108.043,119.018 107.847 C 119.315 107.658,119.338 107.514,119.094 107.363 C 118.902 107.245,118.661 107.368,118.558 107.636 C 118.140 108.726,117.880 108.032,118.244 106.797 C 118.548 105.763,118.769 105.489,119.239 105.560 C 119.721 105.633,119.752 105.590,119.393 105.348 C 119.025 105.101,119.011 104.893,119.315 104.226 C 119.770 103.228,119.787 102.813,119.375 102.813 C 119.203 102.813,119.063 103.019,119.063 103.272 C 119.063 103.524,118.768 104.263,118.408 104.912 C 117.629 106.319,116.977 107.033,117.330 106.094 C 117.459 105.750,117.676 105.102,117.811 104.653 C 118.287 103.072,118.757 102.501,119.620 102.457 C 120.357 102.420,120.376 102.397,119.766 102.279 C 118.952 102.123,118.935 102.065,119.438 101.151 C 119.644 100.776,119.837 100.188,119.865 99.844 C 119.894 99.500,120.142 98.375,120.415 97.344 C 120.689 96.313,120.953 94.871,121.003 94.141 C 121.053 93.411,121.204 92.813,121.339 92.813 C 121.474 92.813,121.439 92.540,121.261 92.208 C 121.065 91.842,121.043 91.318,121.205 90.880 C 121.352 90.482,121.409 89.976,121.332 89.755 C 121.254 89.535,121.297 89.113,121.426 88.818 C 121.591 88.439,121.733 88.739,121.908 89.835 C 122.084 90.938,122.047 91.458,121.781 91.627 M94.550 91.469 C 94.238 92.284,94.014 91.707,94.267 90.740 C 94.441 90.079,94.534 89.992,94.621 90.409 C 94.687 90.720,94.655 91.197,94.550 91.469 M93.423 93.854 C 93.087 94.549,92.813 95.302,92.813 95.527 C 92.813 95.753,92.695 95.938,92.552 95.938 C 92.053 95.938,91.919 95.558,92.183 94.891 C 92.660 93.686,92.914 92.973,92.942 92.760 C 92.957 92.646,93.074 92.447,93.203 92.318 C 93.332 92.189,93.450 91.790,93.464 91.432 C 93.485 90.937,93.556 90.998,93.762 91.686 C 93.965 92.364,93.880 92.908,93.423 93.854 M96.203 92.223 C 95.861 92.440,95.870 92.492,96.250 92.500 C 96.568 92.507,96.604 92.583,96.360 92.739 C 96.162 92.865,95.759 93.707,95.464 94.609 C 95.169 95.512,94.801 96.250,94.646 96.250 C 94.305 96.250,94.666 94.608,95.065 94.346 C 95.219 94.245,95.314 94.034,95.275 93.878 C 95.236 93.721,95.471 92.961,95.797 92.188 C 96.219 91.185,96.423 90.950,96.507 91.369 C 96.571 91.692,96.434 92.077,96.203 92.223 M77.892 92.858 C 77.718 93.032,77.672 92.740,77.775 92.119 C 77.919 91.251,77.963 91.207,78.062 91.833 C 78.126 92.239,78.049 92.701,77.892 92.858 M91.450 97.426 L 90.578 98.281 91.149 97.133 C 91.509 96.409,91.830 96.094,92.020 96.278 C 92.211 96.464,92.003 96.883,91.450 97.426 M94.241 97.054 C 93.971 97.324,93.750 97.699,93.750 97.887 C 93.750 98.075,93.668 98.147,93.568 98.048 C 93.316 97.795,94.013 96.563,94.408 96.563 C 94.586 96.563,94.511 96.783,94.241 97.054 M120.819 101.508 C 120.681 101.908,120.651 102.318,120.753 102.419 C 121.077 102.743,121.304 102.266,121.186 101.511 L 121.071 100.781 120.819 101.508 M76.719 103.126 C 76.934 103.474,76.572 106.364,76.342 106.134 C 76.046 105.837,75.942 102.813,76.229 102.813 C 76.392 102.813,76.613 102.954,76.719 103.126 M121.406 103.438 C 121.289 103.807,121.263 104.180,121.349 104.266 C 121.435 104.352,121.601 104.120,121.719 103.750 C 121.836 103.380,121.862 103.008,121.776 102.922 C 121.690 102.836,121.524 103.068,121.406 103.438 M74.013 113.315 C 73.980 114.195,73.863 114.565,73.699 114.311 C 73.369 113.800,73.469 111.545,73.812 111.757 C 73.952 111.843,74.042 112.544,74.013 113.315 M227.203 135.739 C 222.548 138.229,218.150 143.707,218.132 147.040 C 218.117 149.776,220.104 150.545,226.213 150.169 C 230.183 149.924,230.299 149.974,230.308 151.892 C 230.317 153.988,226.139 158.964,224.297 159.051 C 223.948 159.068,224.013 157.863,224.400 157.140 C 224.807 156.380,224.770 156.334,223.587 156.120 C 223.075 156.027,222.274 155.868,221.806 155.766 C 220.088 155.389,218.688 159.285,220.104 160.503 C 224.223 164.046,233.332 159.619,234.229 153.637 C 234.775 149.992,231.942 148.472,225.308 148.851 C 222.481 149.013,221.906 148.969,221.756 148.578 C 221.437 147.746,222.833 144.695,224.387 142.828 C 225.221 141.826,225.817 140.921,225.712 140.816 C 225.607 140.711,225.721 140.625,225.967 140.625 C 226.212 140.625,226.763 140.305,227.191 139.913 C 230.856 136.559,232.166 137.081,230.260 141.135 C 229.594 142.553,229.674 143.086,230.553 143.084 C 230.850 143.084,231.668 143.178,232.371 143.295 C 233.602 143.498,233.675 143.462,234.385 142.300 C 237.168 137.748,236.881 136.703,232.564 135.658 C 229.154 134.832,228.890 134.836,227.203 135.739 M206.131 139.410 C 201.694 140.452,194.201 147.794,196.797 148.556 C 199.199 149.262,199.629 149.181,200.174 147.922 C 200.871 146.312,201.061 147.011,200.650 149.665 C 200.464 150.860,200.327 152.233,200.344 152.716 L 200.376 153.594 200.636 152.656 C 201.060 151.124,201.889 147.686,201.936 147.266 C 202.007 146.630,202.500 146.821,202.500 147.485 C 202.500 147.820,202.348 148.801,202.163 149.665 C 201.599 152.297,202.018 152.512,202.641 149.910 C 203.282 147.232,203.951 146.241,203.609 148.476 C 203.494 149.228,203.251 150.228,203.070 150.698 C 202.889 151.167,202.820 151.756,202.916 152.005 C 203.011 152.255,202.970 152.504,202.823 152.558 C 202.528 152.667,202.081 155.662,202.051 157.734 C 202.040 158.465,201.932 159.063,201.812 159.063 C 201.691 159.063,201.675 159.766,201.777 160.625 C 201.904 161.694,201.850 162.188,201.606 162.188 C 201.410 162.188,201.250 162.056,201.250 161.894 C 201.250 161.733,200.952 161.624,200.588 161.651 C 199.979 161.697,199.941 161.833,200.102 163.395 C 200.316 165.470,200.434 165.595,202.408 165.829 L 203.987 166.016 204.034 163.259 C 204.093 159.806,203.934 159.873,206.630 162.160 C 211.609 166.384,214.266 167.824,217.031 167.797 C 218.280 167.785,218.281 167.784,217.568 167.252 C 214.660 165.078,210.498 161.704,209.066 160.360 C 208.122 159.474,207.243 158.750,207.112 158.750 C 206.468 158.750,207.071 157.880,209.027 155.988 C 211.151 153.933,212.619 150.888,212.555 148.672 C 212.546 148.371,212.655 148.125,212.797 148.125 C 212.939 148.125,213.042 147.949,213.026 147.734 C 212.964 146.918,213.521 145.000,213.820 145.000 C 214.172 145.000,213.953 146.484,213.114 149.778 C 212.498 152.192,212.958 151.785,214.018 148.976 C 215.863 144.089,215.162 140.826,212.102 140.058 C 209.755 139.468,207.854 139.062,207.596 139.094 C 207.457 139.111,206.798 139.253,206.131 139.410 M225.630 139.937 C 223.067 141.926,221.190 144.516,220.434 147.109 C 219.855 149.095,219.563 149.232,219.786 147.414 C 220.140 144.524,221.977 141.818,224.965 139.783 C 226.435 138.783,226.961 138.904,225.630 139.937 M210.829 141.784 C 211.979 144.536,210.142 149.390,206.156 154.133 C 205.474 154.945,204.818 155.549,204.699 155.476 C 204.461 155.329,205.072 148.874,205.643 145.509 C 205.930 143.818,205.925 143.311,205.620 143.122 C 205.017 142.750,205.557 142.191,207.304 141.377 C 209.604 140.306,210.242 140.380,210.829 141.784 M179.608 144.916 C 175.973 148.932,175.741 163.504,179.258 166.913 C 180.297 167.920,183.958 168.567,184.882 167.907 C 185.519 167.452,187.766 163.737,187.972 162.797 C 188.307 161.271,188.749 161.756,188.768 163.672 C 188.789 165.808,189.349 167.640,190.001 167.698 C 190.258 167.721,190.539 167.770,190.625 167.805 C 193.015 168.794,193.190 168.308,193.604 159.531 C 193.813 155.087,194.236 151.329,194.859 148.365 C 195.401 145.789,195.398 145.848,194.979 146.107 C 194.795 146.220,194.568 146.018,194.474 145.656 C 194.379 145.295,194.037 144.979,193.714 144.953 C 193.390 144.927,192.949 144.892,192.734 144.875 C 192.520 144.858,192.254 144.720,192.144 144.569 C 191.800 144.095,191.361 144.615,190.803 146.162 C 190.507 146.984,189.838 148.711,189.318 150.000 C 188.798 151.289,188.160 152.906,187.899 153.594 C 187.638 154.281,187.314 155.125,187.179 155.469 C 187.044 155.813,186.707 156.698,186.432 157.438 C 185.351 160.332,183.006 165.000,182.632 165.000 C 180.947 165.000,181.982 148.030,183.784 146.109 C 184.367 145.488,184.016 145.072,182.734 144.869 C 182.004 144.753,181.119 144.586,180.768 144.499 C 180.381 144.402,179.923 144.567,179.608 144.916 M212.322 147.109 C 211.959 148.751,211.201 150.931,210.936 151.095 C 210.789 151.186,210.940 150.488,211.272 149.544 C 211.604 148.600,211.875 147.473,211.875 147.039 C 211.875 146.605,212.018 146.250,212.193 146.250 C 212.379 146.250,212.432 146.610,212.322 147.109 M165.304 148.970 C 164.879 149.263,164.390 149.689,164.216 149.917 C 163.958 150.257,163.455 150.218,161.404 149.701 C 158.016 148.848,156.084 148.905,152.002 149.978 C 144.177 152.036,135.279 157.862,139.292 158.301 C 139.595 158.334,140.288 158.448,140.832 158.555 C 141.659 158.717,142.067 158.556,143.332 157.565 C 145.071 156.202,147.171 154.876,147.326 155.042 C 147.385 155.105,147.315 155.859,147.172 156.719 C 146.578 160.289,147.037 172.931,147.856 175.547 C 148.085 176.281,148.405 176.609,149.009 176.728 C 149.468 176.819,150.195 176.997,150.625 177.124 C 151.882 177.497,152.906 177.235,152.617 176.616 C 152.222 175.769,152.142 162.042,152.508 157.969 C 153.087 151.518,152.725 152.158,156.250 151.356 C 160.750 150.332,165.222 151.132,162.339 152.445 C 159.162 153.893,158.222 167.623,161.017 171.757 C 162.739 174.305,167.462 174.950,169.283 172.886 C 170.838 171.125,171.717 168.743,171.214 167.656 C 170.941 167.066,170.932 167.069,171.053 167.714 C 171.129 168.121,170.995 168.468,170.721 168.574 C 170.348 168.717,170.297 168.529,170.451 167.578 C 171.491 161.162,171.660 159.002,170.791 163.240 C 169.995 167.123,169.480 168.450,169.805 165.781 C 169.987 164.284,170.103 163.662,170.486 162.109 C 170.582 161.723,170.769 160.668,170.903 159.766 C 171.036 158.864,171.257 158.020,171.393 157.891 C 171.529 157.762,171.547 157.961,171.432 158.333 C 171.318 158.705,171.371 159.100,171.550 159.211 C 171.752 159.336,171.875 158.994,171.875 158.310 C 171.875 157.535,171.755 157.253,171.470 157.363 C 170.945 157.564,170.948 156.114,171.474 155.588 C 171.911 155.151,171.977 155.277,172.463 157.500 C 172.721 158.682,172.752 158.421,172.654 155.868 C 172.471 151.125,171.647 149.674,168.690 148.886 C 166.559 148.319,166.237 148.327,165.304 148.970 M193.554 151.016 C 193.452 152.090,193.273 153.461,193.157 154.063 C 193.041 154.664,192.970 156.955,192.998 159.154 C 193.046 162.792,192.596 164.633,192.244 162.241 C 192.189 161.868,192.005 161.563,191.835 161.563 C 191.664 161.563,191.636 161.388,191.773 161.172 C 192.184 160.524,192.183 157.813,191.772 157.808 C 191.532 157.805,191.550 157.712,191.824 157.538 C 192.053 157.393,192.215 157.183,192.184 157.071 C 192.137 156.904,192.317 155.164,192.658 152.500 C 193.125 148.843,193.881 147.593,193.554 151.016 M169.048 151.743 C 170.384 155.354,169.224 165.844,167.090 169.445 C 165.113 172.779,164.735 172.399,164.455 166.799 L 164.287 163.441 165.190 163.878 C 166.983 164.744,169.233 164.784,167.843 163.925 C 166.669 163.200,165.785 156.830,166.458 153.945 C 167.286 150.392,168.246 149.576,169.048 151.743 M191.425 152.734 C 191.312 153.895,191.163 155.336,191.093 155.938 C 191.023 156.539,190.889 158.708,190.794 160.757 C 190.699 162.806,190.552 164.553,190.467 164.637 C 189.515 165.589,190.005 155.967,191.145 151.328 C 191.485 149.945,191.627 150.661,191.425 152.734 M178.513 155.384 C 178.424 157.278,178.232 158.660,178.072 158.561 C 177.811 158.399,177.891 156.648,178.318 153.174 C 178.596 150.913,178.678 151.843,178.513 155.384 M230.779 154.273 C 230.227 155.595,228.240 158.125,227.755 158.125 C 227.575 158.125,227.937 157.561,228.560 156.871 C 229.183 156.182,229.936 155.057,230.233 154.371 C 230.529 153.686,230.882 153.125,231.015 153.125 C 231.149 153.125,231.043 153.642,230.779 154.273 M357.106 157.111 C 354.025 167.553,352.688 174.256,352.417 180.622 L 352.344 182.339 349.219 182.715 C 347.500 182.923,345.557 183.173,344.900 183.272 L 343.706 183.452 344.264 182.507 C 344.689 181.789,345.049 181.561,345.771 181.558 C 347.677 181.548,348.080 179.225,346.239 178.857 C 345.375 178.684,345.364 178.652,345.151 175.669 C 345.001 173.549,344.706 172.100,344.158 170.781 C 343.016 168.033,343.017 168.034,341.771 167.213 C 340.895 166.636,340.625 166.247,340.625 165.565 C 340.625 164.682,340.617 164.679,339.834 165.191 C 338.825 165.853,338.519 165.555,339.176 164.552 C 341.911 160.379,335.600 158.410,332.136 162.355 C 329.630 165.209,329.463 165.834,331.459 164.882 C 332.959 164.166,333.676 165.064,332.767 166.520 C 331.774 168.110,333.691 170.071,334.836 168.636 C 335.879 167.328,336.290 167.584,335.740 169.199 C 335.205 170.767,335.269 172.384,335.859 172.266 C 336.867 172.064,336.059 172.889,334.267 173.891 C 332.793 174.715,331.913 175.000,330.840 175.000 C 330.046 175.000,328.891 175.241,328.273 175.535 C 327.402 175.951,327.097 175.984,326.910 175.682 C 326.577 175.142,325.000 176.403,325.000 177.210 C 325.000 177.878,325.376 177.968,326.238 177.507 C 327.134 177.027,327.550 177.763,327.167 179.150 C 326.774 180.573,326.385 180.832,325.873 180.012 C 325.262 179.034,324.358 179.244,322.616 180.767 C 321.741 181.533,319.985 182.706,318.715 183.374 C 317.445 184.041,315.973 184.845,315.444 185.160 C 314.500 185.720,314.452 185.718,313.079 185.053 C 312.308 184.680,311.089 184.375,310.370 184.375 C 308.845 184.375,308.877 184.525,309.385 179.697 C 309.738 176.341,310.522 172.794,311.891 168.359 L 312.831 165.313 314.238 165.313 C 315.636 165.313,315.805 165.182,316.001 163.945 C 316.093 163.362,313.322 162.199,312.885 162.636 C 311.664 163.857,308.662 176.205,308.273 181.608 L 308.056 184.623 303.793 185.022 C 301.449 185.241,299.485 185.361,299.429 185.289 C 299.097 184.858,299.233 181.185,299.592 180.887 C 300.152 180.423,300.103 179.229,299.477 178.031 C 299.189 177.481,298.783 176.304,298.573 175.414 C 298.358 174.503,297.752 173.249,297.183 172.541 C 296.411 171.580,296.220 171.099,296.372 170.495 C 296.589 169.630,295.834 169.629,295.503 170.493 C 295.409 170.737,295.100 170.938,294.815 170.938 C 294.387 170.938,294.366 170.856,294.695 170.459 C 295.001 170.091,295.010 169.802,294.733 169.195 C 294.536 168.762,294.375 168.165,294.375 167.869 C 294.375 167.572,293.892 167.069,293.301 166.751 C 291.583 165.826,290.264 166.257,287.917 168.511 C 285.614 170.722,285.512 171.013,287.131 170.754 C 288.175 170.587,288.391 170.664,288.850 171.364 C 289.520 172.387,289.510 172.500,288.750 172.500 C 287.858 172.500,287.949 173.567,288.906 174.319 C 290.298 175.414,289.852 176.173,286.964 177.621 C 286.067 178.070,284.855 178.438,284.271 178.438 C 283.667 178.438,282.851 178.719,282.379 179.091 C 281.684 179.637,281.397 179.691,280.620 179.420 C 279.631 179.075,279.045 179.940,279.488 181.093 C 279.690 181.621,280.798 181.729,281.094 181.250 C 281.200 181.078,281.518 180.938,281.801 180.938 C 282.866 180.938,279.865 183.506,277.552 184.574 C 276.292 185.157,274.767 186.009,274.165 186.469 L 273.069 187.304 273.301 185.761 C 273.428 184.913,274.110 181.970,274.818 179.222 L 276.103 174.226 277.795 173.982 C 278.909 173.822,279.558 173.853,279.693 174.072 C 280.019 174.599,280.681 173.587,280.734 172.480 C 280.779 171.553,280.691 171.478,278.906 170.914 C 276.483 170.149,276.642 170.105,276.230 171.641 C 276.033 172.371,275.753 173.044,275.606 173.135 C 275.250 173.357,272.964 182.257,272.366 185.747 C 271.788 189.128,272.186 188.780,268.526 189.107 C 266.844 189.257,264.728 189.530,263.822 189.713 C 261.038 190.277,257.946 188.701,258.776 187.142 C 258.960 186.796,258.898 186.503,258.587 186.245 C 258.333 186.034,258.125 185.448,258.125 184.944 C 258.125 184.333,257.822 183.746,257.217 183.186 C 256.717 182.723,256.127 181.727,255.905 180.974 C 255.554 179.785,255.223 179.425,253.390 178.251 C 250.824 176.606,250.475 176.088,250.007 173.230 C 249.318 169.026,246.254 168.236,242.854 171.385 C 242.058 172.122,241.090 172.890,240.703 173.092 C 239.862 173.532,239.793 174.477,240.547 175.244 C 242.891 177.630,242.280 179.494,238.540 181.365 C 237.651 181.810,236.415 182.519,235.794 182.940 C 234.929 183.527,234.410 183.666,233.582 183.531 C 232.571 183.367,232.488 183.419,232.306 184.327 C 232.146 185.131,231.926 185.333,231.035 185.500 C 230.442 185.612,229.792 185.966,229.591 186.289 C 229.197 186.919,227.188 187.137,227.188 186.549 C 227.188 185.697,225.703 184.581,225.386 185.194 C 224.769 186.386,224.650 188.018,225.150 188.432 C 225.826 188.993,225.739 189.521,224.897 189.972 C 224.496 190.186,223.926 190.772,223.629 191.274 C 223.332 191.777,222.871 192.188,222.603 192.188 C 220.828 192.188,217.949 194.816,218.714 195.737 C 219.088 196.189,218.467 197.188,217.812 197.188 C 217.212 197.188,216.626 198.176,216.422 199.532 C 216.253 200.659,216.035 201.049,215.413 201.332 C 214.630 201.689,214.621 201.731,214.834 204.173 L 215.051 206.651 214.088 206.458 C 213.256 206.292,213.125 206.355,213.125 206.923 C 213.125 207.285,212.640 208.117,212.048 208.773 C 209.491 211.602,209.610 217.673,212.287 221.061 C 215.159 224.694,223.134 225.222,226.018 221.971 C 226.545 221.377,226.669 221.370,228.966 221.798 C 233.113 222.571,237.011 221.394,238.465 218.931 C 239.016 217.995,239.249 217.880,240.943 217.699 C 241.971 217.590,243.652 217.411,244.678 217.301 C 245.908 217.170,246.722 216.904,247.070 216.520 C 247.694 215.831,248.438 215.755,248.438 216.380 C 248.438 223.146,259.576 226.068,265.524 220.862 C 266.907 219.653,267.443 219.375,268.399 219.375 C 273.305 219.375,277.367 215.169,277.326 210.130 L 277.308 207.917 278.832 207.375 C 280.815 206.671,282.721 204.939,283.114 203.482 C 283.550 201.866,286.435 200.574,287.576 201.483 C 288.598 202.296,294.430 202.257,296.648 201.422 C 299.243 200.445,298.995 200.418,299.236 201.699 C 300.233 207.016,308.529 208.511,311.332 203.878 C 312.541 201.879,312.629 201.857,313.404 203.359 C 316.447 209.264,325.887 209.448,328.276 203.649 C 328.572 202.931,328.920 202.133,329.049 201.875 C 329.234 201.506,330.475 201.331,334.877 201.050 C 337.952 200.855,340.990 200.591,341.628 200.465 C 342.675 200.257,342.867 200.329,343.609 201.211 C 344.061 201.748,344.606 202.188,344.821 202.188 C 345.035 202.188,346.003 202.755,346.971 203.448 C 351.654 206.802,357.435 206.442,360.066 202.633 C 362.719 198.792,361.457 193.259,357.397 190.938 L 355.888 190.075 357.065 189.491 C 358.664 188.696,359.433 187.537,359.615 185.648 C 359.729 184.459,359.894 184.061,360.274 184.058 C 360.553 184.055,360.992 183.914,361.250 183.745 C 361.926 183.302,361.077 182.800,360.011 183.013 C 359.571 183.101,358.580 182.954,357.809 182.685 C 357.037 182.416,355.738 182.195,354.922 182.192 L 353.438 182.188 353.443 179.766 C 353.452 175.936,354.211 171.630,356.204 164.103 C 358.217 156.496,358.227 156.478,360.375 156.658 C 362.071 156.799,362.500 156.499,362.500 155.172 C 362.499 154.289,360.218 153.115,358.529 153.127 C 358.393 153.128,357.752 154.921,357.106 157.111 M128.424 154.548 C 127.938 155.133,123.750 163.411,123.750 163.786 C 123.750 163.932,123.355 164.868,122.872 165.865 C 122.389 166.862,121.806 168.376,121.576 169.229 C 120.754 172.282,120.585 171.484,120.652 164.865 L 120.720 158.323 119.542 157.915 C 118.895 157.691,118.251 157.579,118.111 157.665 C 117.970 157.752,117.776 157.694,117.679 157.536 C 117.326 156.965,111.507 157.409,108.321 158.250 C 101.230 160.122,91.531 166.565,95.880 166.514 C 96.170 166.511,96.898 166.602,97.500 166.716 C 98.475 166.901,98.798 166.764,100.469 165.461 C 103.225 163.311,104.212 162.839,103.952 163.797 C 103.197 166.574,103.539 180.629,104.431 183.438 C 104.848 184.750,105.159 184.989,106.466 184.995 C 107.014 184.998,107.538 185.122,107.630 185.271 C 108.071 185.984,109.371 185.250,109.143 184.417 C 108.449 181.886,109.172 161.328,109.984 160.516 C 110.237 160.263,114.738 159.071,115.469 159.064 C 115.675 159.062,115.688 160.570,115.505 163.515 C 115.191 168.577,115.673 173.599,116.904 178.091 C 117.707 181.022,118.303 181.563,120.727 181.563 L 122.110 181.563 122.667 178.672 C 123.676 173.435,125.362 168.225,127.648 163.281 C 128.226 162.032,130.742 156.960,131.368 155.782 C 131.848 154.878,131.841 154.838,131.167 154.660 C 128.994 154.088,128.812 154.080,128.424 154.548 M200.826 156.172 C 200.605 157.505,200.555 161.424,200.761 161.219 C 200.925 161.054,201.283 155.000,201.129 155.000 C 201.069 155.000,200.932 155.527,200.826 156.172 M148.900 157.734 C 148.754 160.012,148.771 160.100,149.194 159.219 C 149.603 158.365,149.641 158.758,149.617 163.594 C 149.602 166.516,149.685 169.635,149.801 170.525 C 149.931 171.519,149.889 172.219,149.694 172.340 C 149.513 172.452,149.373 172.225,149.370 171.815 C 149.367 171.283,149.294 171.207,149.093 171.524 C 148.943 171.761,148.874 172.534,148.941 173.243 C 149.054 174.457,149.043 174.477,148.750 173.594 C 148.102 171.646,147.728 162.767,148.170 159.848 C 148.301 158.986,148.493 157.613,148.598 156.797 C 148.893 154.493,149.072 155.047,148.900 157.734 M117.196 160.627 L 116.939 161.719 116.907 160.755 C 116.889 160.225,116.969 159.698,117.083 159.583 C 117.435 159.232,117.463 159.490,117.196 160.627 M160.853 163.040 C 160.785 163.688,160.729 163.234,160.728 162.031 C 160.726 160.828,160.782 160.298,160.851 160.852 C 160.920 161.407,160.921 162.392,160.853 163.040 M119.605 163.516 C 119.643 166.209,119.976 173.572,120.146 175.469 L 120.285 177.031 119.820 175.992 C 119.261 174.746,118.763 161.563,119.274 161.563 C 119.441 161.563,119.590 162.441,119.605 163.516 M86.641 162.859 C 86.426 163.074,86.250 163.353,86.250 163.479 C 86.250 163.605,85.279 165.739,84.091 168.221 C 82.904 170.703,81.368 174.264,80.678 176.133 C 79.988 178.002,79.335 179.757,79.227 180.034 C 79.118 180.310,78.491 180.697,77.833 180.894 C 76.312 181.350,75.608 182.098,76.449 182.365 C 78.443 183.001,78.397 182.927,77.929 184.731 C 77.037 188.172,77.380 188.967,79.889 189.264 L 81.407 189.444 81.803 187.353 C 82.022 186.204,82.514 184.328,82.897 183.185 L 83.594 181.106 85.717 180.504 C 88.291 179.774,88.317 179.796,88.716 182.989 C 89.248 187.250,89.853 188.447,91.719 188.934 C 94.011 189.533,94.441 189.327,93.928 187.873 C 93.588 186.912,92.844 180.872,92.785 178.594 C 92.685 174.793,92.280 163.574,92.240 163.508 C 91.848 162.863,87.177 162.322,86.641 162.859 M117.090 164.297 C 117.012 164.598,116.948 164.352,116.948 163.750 C 116.948 163.148,117.012 162.902,117.090 163.203 C 117.169 163.504,117.169 163.996,117.090 164.297 M105.594 164.922 C 105.250 167.012,105.261 168.125,105.625 168.125 C 105.797 168.125,105.921 168.020,105.900 167.891 C 105.786 167.167,105.975 165.938,106.200 165.938 C 106.344 165.938,106.427 166.395,106.385 166.953 C 106.232 168.961,106.275 177.079,106.450 179.375 C 106.624 181.665,106.449 182.277,106.126 180.501 C 105.860 179.035,105.626 179.172,105.605 180.807 C 105.568 183.674,105.011 181.143,104.819 177.236 C 104.721 175.233,104.608 173.137,104.568 172.578 C 104.528 172.020,104.644 171.560,104.826 171.558 C 105.034 171.555,105.024 171.468,104.799 171.323 C 104.547 171.162,104.520 170.585,104.707 169.375 C 104.853 168.430,105.060 166.707,105.167 165.547 C 105.275 164.387,105.469 163.438,105.600 163.438 C 105.731 163.438,105.728 164.105,105.594 164.922 M117.188 166.302 C 117.188 167.018,117.082 167.498,116.953 167.369 C 116.824 167.240,116.719 166.654,116.719 166.067 C 116.719 165.480,116.824 165.000,116.953 165.000 C 117.082 165.000,117.188 165.586,117.188 166.302 M160.846 166.637 C 160.771 167.026,160.707 166.781,160.704 166.094 C 160.700 165.406,160.761 165.088,160.840 165.387 C 160.918 165.686,160.921 166.248,160.846 166.637 M105.313 169.063 C 105.313 169.406,105.423 169.688,105.558 169.688 C 105.694 169.688,105.826 169.406,105.852 169.063 C 105.877 168.719,105.767 168.438,105.606 168.438 C 105.444 168.438,105.313 168.719,105.313 169.063 M117.487 170.748 C 117.788 171.538,117.586 172.902,117.204 172.666 C 116.947 172.508,116.794 170.000,117.041 170.000 C 117.130 170.000,117.331 170.336,117.487 170.748 M87.746 176.231 L 87.656 178.243 86.105 178.637 C 85.251 178.854,84.519 178.998,84.478 178.957 C 84.379 178.858,85.087 176.884,85.506 176.094 C 85.688 175.750,86.170 174.628,86.578 173.600 L 87.318 171.731 87.577 172.975 C 87.720 173.659,87.796 175.124,87.746 176.231 M117.610 173.823 C 117.710 174.206,117.674 174.639,117.529 174.784 C 117.384 174.929,117.202 174.615,117.124 174.086 C 116.962 172.982,117.337 172.779,117.610 173.823 M117.894 176.597 C 117.662 177.486,117.499 177.309,117.505 176.172 C 117.508 175.481,117.596 175.292,117.779 175.581 C 117.927 175.815,117.979 176.272,117.894 176.597 M91.245 180.911 C 91.252 182.355,90.984 181.995,90.783 180.291 C 90.667 179.312,90.710 179.044,90.930 179.375 C 91.101 179.633,91.243 180.324,91.245 180.911 M245.938 187.825 C 245.938 189.021,246.403 189.969,247.849 191.719 C 248.892 192.981,248.858 193.632,247.713 194.340 C 245.650 195.615,243.087 194.983,240.720 192.616 C 239.929 191.825,239.397 191.563,238.583 191.563 C 237.352 191.563,237.319 191.504,237.982 190.493 C 238.472 189.744,238.007 188.750,237.165 188.750 C 235.873 188.750,237.326 188.173,239.013 188.016 C 240.189 187.907,241.982 187.549,242.997 187.221 C 245.792 186.319,245.938 186.348,245.938 187.825 M312.970 187.734 C 312.848 188.035,312.604 188.703,312.427 189.219 C 312.250 189.734,311.918 190.357,311.689 190.602 C 311.072 191.263,310.760 190.245,311.231 189.108 C 311.432 188.623,311.572 188.098,311.542 187.941 C 311.428 187.335,311.591 187.188,312.377 187.188 C 313.029 187.188,313.148 187.297,312.970 187.734 M124.517 194.616 C 123.478 195.601,121.953 197.019,121.129 197.768 C 120.304 198.517,119.748 199.238,119.893 199.371 C 120.387 199.824,122.403 200.330,122.921 200.131 C 123.578 199.879,123.597 199.705,122.522 203.662 C 121.471 207.531,120.460 213.182,120.705 213.820 C 120.888 214.298,123.330 215.212,123.628 214.914 C 123.730 214.811,124.303 212.714,124.901 210.254 C 126.559 203.423,127.638 199.951,129.198 196.423 C 130.232 194.085,130.245 194.145,128.568 193.426 C 126.628 192.595,126.660 192.586,124.517 194.616 M184.012 193.182 C 179.948 194.264,178.532 198.888,181.300 202.041 L 182.222 203.090 181.658 204.084 C 180.420 206.267,180.173 206.796,179.482 208.750 C 178.233 212.281,178.595 213.507,181.178 214.492 C 183.790 215.487,185.856 214.744,188.969 211.692 C 191.762 208.953,191.618 207.697,188.253 205.464 C 187.323 204.846,186.563 204.263,186.563 204.168 C 186.563 203.713,190.012 199.300,191.847 197.407 C 194.160 195.021,194.366 194.688,193.526 194.688 C 193.202 194.688,192.804 194.557,192.641 194.398 C 191.655 193.439,186.028 192.645,184.012 193.182 M200.805 193.601 C 200.220 194.494,196.362 199.307,195.700 199.970 C 194.018 201.653,192.121 204.775,192.376 205.440 C 192.940 206.909,200.092 207.205,201.118 205.801 C 201.314 205.533,201.635 205.313,201.831 205.313 C 202.230 205.313,202.281 204.981,201.995 204.236 C 201.863 203.892,201.686 203.830,201.434 204.039 C 201.232 204.207,200.098 204.444,198.915 204.565 L 196.763 204.785 197.492 203.721 C 197.894 203.135,198.385 202.516,198.585 202.344 C 199.603 201.466,204.389 194.835,204.308 194.413 C 204.256 194.145,203.723 193.780,203.123 193.603 C 202.522 193.426,201.871 193.177,201.675 193.050 C 201.465 192.913,201.108 193.139,200.805 193.601 M89.609 194.453 C 84.352 199.433,80.857 209.651,83.199 213.193 C 83.692 213.939,86.256 215.000,87.564 215.000 C 90.172 215.000,94.239 207.891,93.390 204.817 C 93.025 203.494,89.555 201.520,88.901 202.262 C 87.993 203.291,87.765 204.432,88.512 204.205 C 89.775 203.822,89.844 203.883,89.798 205.330 C 89.747 206.931,88.159 210.503,87.023 211.570 L 86.320 212.231 86.198 210.956 C 86.131 210.255,86.234 208.894,86.426 207.932 C 86.618 206.970,86.711 205.846,86.633 205.435 C 86.538 204.941,86.635 204.688,86.918 204.688 C 87.154 204.688,87.683 203.822,88.094 202.761 C 88.820 200.888,89.765 199.675,93.287 196.096 L 94.856 194.501 93.287 193.811 C 91.235 192.909,91.241 192.908,89.609 194.453 M204.854 195.467 C 204.131 197.011,203.795 198.115,203.915 198.547 C 204.060 199.065,204.031 199.113,203.787 198.759 C 203.520 198.370,203.440 198.394,203.268 198.915 C 203.156 199.254,202.861 200.076,202.613 200.742 C 202.364 201.408,202.238 202.029,202.331 202.122 C 202.424 202.215,202.500 202.132,202.500 201.937 C 202.500 201.742,202.698 201.658,202.939 201.751 C 203.236 201.864,203.446 201.610,203.587 200.968 C 203.943 199.346,205.673 196.149,205.463 197.500 L 205.293 198.594 205.864 197.566 C 206.528 196.370,207.049 196.558,206.439 197.774 C 205.644 199.361,203.500 205.810,202.946 208.281 C 202.638 209.656,202.246 210.875,202.074 210.991 C 201.903 211.106,201.728 211.435,201.686 211.722 C 201.644 212.010,201.529 212.326,201.430 212.424 C 201.040 212.814,200.859 212.121,200.797 210.005 C 200.759 208.694,200.842 207.957,201.001 208.194 C 201.160 208.431,201.183 208.211,201.059 207.656 C 200.944 207.141,200.813 206.674,200.769 206.620 C 200.603 206.417,199.888 211.154,199.866 212.605 C 199.844 214.102,201.499 215.386,202.866 214.930 C 203.450 214.735,204.667 211.446,204.313 211.019 C 203.823 210.429,205.040 205.313,205.669 205.313 C 205.785 205.313,205.816 205.066,205.738 204.766 C 205.600 204.228,208.089 196.587,208.939 194.940 C 209.400 194.044,209.267 193.836,208.048 193.548 C 207.661 193.457,207.037 193.310,206.662 193.221 C 206.070 193.081,205.834 193.375,204.854 195.467 M100.519 194.373 C 99.933 194.887,99.151 196.047,98.781 196.951 C 98.411 197.854,97.699 199.369,97.198 200.317 C 94.205 205.986,94.315 212.761,97.424 214.236 C 101.273 216.062,102.549 214.835,104.944 207.002 C 107.518 198.583,107.341 195.465,104.219 194.200 C 101.857 193.243,101.803 193.246,100.519 194.373 M113.594 193.733 C 112.644 194.122,111.982 194.992,111.078 197.042 C 110.626 198.067,109.792 199.891,109.225 201.094 C 106.825 206.183,106.772 212.338,109.115 213.864 C 113.151 216.495,115.018 214.810,117.553 206.250 C 119.797 198.669,119.577 195.568,116.701 194.251 C 114.796 193.379,114.556 193.339,113.594 193.733 M153.100 194.437 C 150.743 195.615,147.387 198.714,147.550 199.562 C 147.737 200.533,150.296 201.100,150.860 200.295 C 152.487 197.972,157.779 194.529,158.545 195.295 C 158.827 195.577,157.681 198.240,156.655 199.688 C 156.114 200.451,156.115 200.458,156.704 200.000 C 157.214 199.604,157.265 199.602,157.033 199.986 C 156.476 200.909,155.819 201.526,155.562 201.367 C 155.416 201.277,155.331 201.319,155.372 201.461 C 155.462 201.770,151.227 207.581,151.045 207.399 C 150.866 207.220,151.981 205.317,152.266 205.314 C 152.395 205.313,152.500 205.194,152.500 205.050 C 152.500 204.905,150.602 206.628,148.281 208.878 C 143.501 213.514,143.394 213.745,145.703 214.448 C 147.337 214.945,156.563 214.909,156.563 214.405 C 156.563 213.908,153.333 213.125,151.286 213.125 C 148.473 213.125,148.393 213.352,152.836 208.750 C 158.708 202.668,161.875 198.368,161.875 196.478 C 161.875 193.762,156.809 192.583,153.100 194.437 M169.665 194.052 C 166.732 195.245,162.972 198.506,163.195 199.664 C 163.351 200.473,166.010 201.064,166.479 200.394 C 167.729 198.610,172.888 195.000,174.188 195.000 C 174.775 195.000,173.934 197.397,172.737 199.138 C 172.413 199.610,172.223 200.117,172.314 200.265 C 172.515 200.590,171.137 201.948,170.836 201.722 C 170.720 201.634,170.691 201.652,170.772 201.762 C 170.988 202.054,169.684 203.785,169.387 203.601 C 169.247 203.515,168.942 203.689,168.707 203.988 C 168.322 204.480,168.333 204.490,168.828 204.102 C 169.658 203.451,169.484 203.991,168.438 205.313 C 167.922 205.964,167.500 206.608,167.500 206.744 C 167.500 206.880,167.254 207.286,166.953 207.646 C 166.652 208.006,166.962 207.734,167.642 207.041 C 169.890 204.750,172.846 200.851,172.675 200.404 C 172.583 200.164,172.634 200.046,172.789 200.142 C 172.945 200.238,173.376 199.823,173.749 199.221 C 174.478 198.041,174.688 197.889,174.688 198.538 C 174.688 199.077,171.953 203.358,170.941 204.405 C 170.509 204.851,168.891 206.571,167.344 208.227 C 165.797 209.883,164.331 211.240,164.086 211.244 C 163.757 211.248,163.805 211.067,164.270 210.547 C 164.838 209.911,168.175 204.993,168.029 205.005 C 167.613 205.038,159.663 213.208,159.761 213.502 C 160.160 214.698,172.188 215.528,172.188 214.359 C 172.188 213.844,169.151 213.125,166.976 213.125 C 164.107 213.125,163.948 213.515,168.904 208.372 C 175.161 201.877,177.500 198.598,177.500 196.320 C 177.500 194.027,172.959 192.713,169.665 194.052 M188.750 194.865 C 188.750 194.963,187.989 195.913,187.060 196.975 C 186.130 198.037,184.939 199.398,184.413 200.000 L 183.456 201.094 183.447 199.750 C 183.431 197.421,184.764 195.753,187.199 195.054 C 188.548 194.667,188.750 194.643,188.750 194.865 M127.840 196.172 C 127.203 197.373,123.884 207.870,123.468 210.000 C 123.219 211.275,123.190 211.310,123.159 210.372 C 123.114 209.011,124.900 202.879,127.066 196.953 C 127.333 196.223,127.682 195.625,127.841 195.625 C 128.018 195.625,128.018 195.837,127.840 196.172 M103.611 198.483 C 103.490 199.712,103.034 201.927,102.598 203.405 C 102.162 204.884,101.786 206.305,101.762 206.563 C 101.738 206.820,101.641 207.102,101.546 207.188 C 101.452 207.273,101.136 207.977,100.844 208.750 C 99.348 212.721,98.424 213.090,98.642 209.630 C 98.841 206.487,99.347 204.827,100.088 204.887 C 100.453 204.917,100.625 204.700,100.625 204.212 C 100.625 202.585,103.025 196.250,103.641 196.250 C 103.746 196.250,103.732 197.255,103.611 198.483 M115.630 200.603 C 115.436 201.732,114.987 203.460,114.632 204.442 C 114.277 205.424,114.073 206.451,114.177 206.724 C 114.288 207.011,114.238 207.139,114.059 207.029 C 113.889 206.924,113.750 207.007,113.750 207.214 C 113.750 207.902,111.545 212.188,111.191 212.188 C 110.947 212.188,110.900 211.316,111.036 209.257 C 111.236 206.212,111.724 204.563,112.353 204.804 C 112.571 204.888,112.855 204.417,113.052 203.644 C 113.802 200.702,114.316 199.134,115.017 197.655 L 115.755 196.094 115.868 197.322 C 115.931 197.998,115.823 199.474,115.630 200.603 M104.997 202.031 C 104.590 204.122,102.575 210.304,102.149 210.766 C 101.998 210.929,101.875 211.300,101.875 211.590 C 101.875 212.073,100.659 213.847,100.635 213.398 C 100.630 213.291,100.984 212.391,101.422 211.400 C 101.861 210.408,102.248 209.196,102.282 208.705 C 102.316 208.215,102.459 207.813,102.599 207.813 C 102.740 207.813,102.765 207.531,102.656 207.188 C 102.408 206.405,102.784 205.073,103.106 205.595 C 103.469 206.182,104.531 202.207,104.531 200.264 C 104.531 199.292,104.635 198.660,104.761 198.858 C 104.898 199.073,105.014 198.904,105.048 198.438 C 105.079 198.008,105.163 198.219,105.233 198.906 C 105.304 199.594,105.197 201.000,104.997 202.031 M117.478 201.090 C 117.160 203.334,115.508 208.559,114.165 211.571 C 112.829 214.565,112.785 213.720,114.106 210.439 C 115.393 207.241,115.526 206.706,114.947 207.064 C 114.691 207.222,114.651 207.110,114.813 206.692 C 114.940 206.363,115.122 205.707,115.217 205.234 C 115.313 204.762,115.501 204.375,115.635 204.375 C 115.769 204.375,115.819 204.691,115.746 205.078 C 115.621 205.733,115.632 205.739,115.909 205.156 C 116.306 204.320,116.323 203.668,115.941 203.904 C 115.764 204.013,115.711 203.888,115.818 203.612 C 115.920 203.346,116.112 203.196,116.245 203.278 C 116.378 203.360,116.574 202.990,116.681 202.456 C 116.950 201.110,116.870 200.291,116.563 201.250 C 116.338 201.952,116.309 201.964,116.281 201.366 C 116.264 201.001,116.461 200.526,116.719 200.313 C 116.977 200.099,117.196 199.413,117.207 198.790 C 117.224 197.827,117.268 197.758,117.500 198.333 C 117.658 198.725,117.649 199.886,117.478 201.090 M159.063 198.381 C 159.063 198.739,156.850 202.323,156.094 203.191 C 155.750 203.586,155.001 204.504,154.429 205.233 C 153.104 206.920,148.399 211.629,148.219 211.448 C 148.144 211.373,148.584 210.613,149.197 209.759 C 149.811 208.905,150.313 208.033,150.313 207.820 C 150.313 207.607,150.512 207.510,150.755 207.603 C 151.519 207.896,158.438 199.639,158.438 198.434 C 158.438 198.264,158.578 198.125,158.750 198.125 C 158.922 198.125,159.063 198.240,159.063 198.381 M187.673 199.919 C 186.242 202.081,183.848 208.212,185.174 206.320 C 185.798 205.429,186.117 205.444,186.740 206.394 C 187.487 207.536,186.871 209.040,184.945 210.771 C 182.973 212.545,182.691 212.558,182.998 210.859 C 183.337 208.986,183.329 208.291,182.969 208.220 C 182.797 208.186,182.680 208.538,182.708 209.001 C 182.757 209.781,182.737 209.795,182.448 209.189 C 182.101 208.464,183.153 204.483,183.663 204.589 C 183.815 204.621,183.953 204.197,183.968 203.647 C 183.993 202.767,185.134 200.313,185.518 200.313 C 185.597 200.313,185.607 200.418,185.539 200.547 C 185.167 201.255,184.063 203.767,184.063 203.903 C 184.063 204.586,184.990 203.807,185.454 202.734 C 186.089 201.266,188.118 198.326,188.342 198.550 C 188.420 198.629,188.119 199.244,187.673 199.919 M45.807 199.723 C 45.345 200.086,45.036 200.453,45.121 200.538 C 45.206 200.622,44.990 200.993,44.641 201.361 C 43.602 202.461,42.716 204.403,43.085 204.773 C 43.308 204.995,43.306 205.287,43.080 205.709 C 42.899 206.047,42.730 207.065,42.704 207.972 C 42.678 208.879,42.541 209.552,42.401 209.467 C 42.261 209.382,42.172 209.502,42.204 209.734 C 42.478 211.735,41.996 212.330,41.532 210.563 C 41.307 209.706,41.284 209.807,41.395 211.153 C 41.571 213.293,42.754 215.077,44.582 215.962 C 46.145 216.719,46.698 216.615,45.452 215.799 C 42.115 213.612,44.463 201.730,48.485 200.454 C 49.338 200.183,49.191 199.860,48.025 199.438 C 46.701 198.959,46.793 198.947,45.807 199.723 M75.500 201.158 C 78.504 205.732,77.857 212.389,74.219 214.347 C 72.373 215.340,72.350 215.368,72.981 215.829 C 74.179 216.705,76.391 216.142,77.649 214.641 C 77.987 214.237,78.064 214.082,77.820 214.297 C 77.575 214.512,77.245 214.688,77.087 214.688 C 76.922 214.688,76.931 214.520,77.108 214.297 C 78.062 213.093,78.524 210.481,78.335 207.365 C 78.224 205.542,78.269 204.022,78.442 203.750 C 78.688 203.364,78.741 203.360,78.745 203.724 C 78.748 203.967,78.837 204.079,78.944 203.972 C 79.558 203.359,77.011 200.312,75.291 199.602 L 74.175 199.142 75.500 201.158 M104.060 201.475 C 103.721 202.002,103.712 202.001,103.883 201.459 C 103.982 201.144,104.079 200.652,104.099 200.365 C 104.131 199.895,104.149 199.897,104.276 200.381 C 104.354 200.676,104.256 201.168,104.060 201.475 M203.281 200.938 C 203.164 201.307,202.998 201.539,202.912 201.453 C 202.826 201.367,202.851 200.995,202.969 200.625 C 203.086 200.255,203.252 200.023,203.338 200.109 C 203.424 200.195,203.399 200.568,203.281 200.938 M86.391 201.279 C 86.116 201.811,85.826 202.180,85.747 202.101 C 85.534 201.888,86.304 200.313,86.621 200.313 C 86.769 200.313,86.666 200.747,86.391 201.279 M51.978 201.516 C 51.300 201.718,48.750 206.044,48.750 206.990 C 48.750 207.823,50.637 208.219,51.383 207.542 C 52.207 206.794,53.442 206.151,53.652 206.361 C 53.940 206.648,52.808 209.587,51.856 211.024 L 50.929 212.424 49.769 212.025 C 47.975 211.408,46.230 214.026,47.989 214.695 C 50.244 215.553,51.557 214.959,52.667 212.580 C 53.129 211.591,53.843 210.102,54.253 209.271 C 54.664 208.441,55.014 207.527,55.031 207.240 C 55.049 206.941,55.158 207.052,55.287 207.500 C 55.420 207.962,55.336 208.710,55.081 209.331 C 54.845 209.908,54.712 210.441,54.786 210.515 C 55.026 210.755,55.938 208.144,55.938 207.219 C 55.938 206.143,55.573 205.813,53.808 205.289 C 52.579 204.924,52.478 204.818,52.658 204.085 C 52.954 202.888,53.135 202.796,55.977 202.392 L 58.592 202.020 57.306 201.635 C 55.960 201.232,53.137 201.168,51.978 201.516 M60.215 202.439 C 59.753 202.921,59.375 203.435,59.375 203.581 C 59.375 203.726,58.957 204.730,58.447 205.811 C 56.090 210.798,56.398 214.069,59.314 215.031 C 60.855 215.540,61.873 214.379,62.958 210.872 C 64.799 204.918,64.725 202.916,62.629 202.040 C 61.151 201.422,61.196 201.415,60.215 202.439 M68.453 203.025 C 63.657 208.474,63.569 216.901,68.327 215.098 C 69.611 214.612,71.563 211.240,71.563 209.507 C 71.563 207.878,68.724 206.372,68.350 207.802 C 68.208 208.343,68.285 208.429,68.776 208.273 C 69.471 208.052,69.552 208.605,69.071 210.283 C 68.727 211.483,67.486 213.432,67.064 213.435 C 66.716 213.438,67.058 209.030,67.426 208.777 C 67.572 208.676,67.890 208.102,68.133 207.500 C 68.552 206.464,69.199 205.631,71.439 203.248 L 72.408 202.217 71.470 201.890 C 70.026 201.386,69.832 201.459,68.453 203.025 M61.710 208.028 C 60.838 211.231,59.883 213.438,59.369 213.438 C 58.667 213.438,59.259 209.446,60.083 208.623 C 60.340 208.366,60.649 207.628,60.770 206.983 C 60.891 206.338,61.292 205.241,61.661 204.546 C 62.711 202.570,62.735 204.269,61.710 208.028 M123.571 204.509 C 123.456 204.967,123.302 205.281,123.229 205.208 C 123.155 205.134,123.189 204.699,123.304 204.241 C 123.419 203.783,123.573 203.469,123.646 203.542 C 123.720 203.616,123.686 204.051,123.571 204.509 M63.135 207.595 C 62.698 209.634,60.914 214.375,60.582 214.375 C 60.446 214.375,60.611 213.729,60.950 212.941 C 61.288 212.152,61.485 211.378,61.389 211.222 C 61.292 211.065,61.339 210.938,61.492 210.938 C 61.645 210.938,61.771 210.488,61.771 209.939 C 61.771 209.390,61.927 208.889,62.118 208.825 C 62.309 208.762,62.387 208.508,62.293 208.261 C 62.198 208.014,62.283 207.813,62.481 207.813 C 62.723 207.813,62.777 207.429,62.647 206.641 C 62.497 205.735,62.533 205.575,62.803 205.938 C 63.099 206.334,63.145 206.310,63.103 205.781 C 63.017 204.711,63.212 204.172,63.350 205.095 C 63.423 205.576,63.326 206.701,63.135 207.595 M79.231 205.401 C 79.351 206.052,79.458 207.739,79.470 209.150 C 79.489 211.317,79.537 211.546,79.779 210.624 C 80.151 209.204,79.890 205.075,79.397 204.593 C 79.095 204.298,79.060 204.471,79.231 205.401 M128.872 205.369 C 128.185 206.477,132.613 206.988,141.634 206.844 C 142.736 206.826,142.444 206.313,141.009 205.743 C 139.510 205.148,129.206 204.830,128.872 205.369 M183.021 206.928 C 182.938 207.243,182.986 207.429,183.127 207.342 C 183.269 207.255,183.443 207.360,183.515 207.576 C 183.588 207.792,183.716 207.605,183.801 207.161 C 183.981 206.226,183.261 206.010,183.021 206.928 M35.313 207.656 C 35.313 208.658,35.235 208.750,34.393 208.750 C 33.116 208.750,32.950 209.227,34.066 209.689 C 34.802 209.994,35.000 210.270,35.000 210.990 C 35.000 211.726,35.198 211.989,36.013 212.331 C 37.329 212.884,37.500 212.740,37.500 211.075 L 37.500 209.688 38.828 209.657 L 40.156 209.627 38.974 209.111 C 38.277 208.806,37.721 208.314,37.617 207.911 C 37.479 207.371,36.164 206.563,35.422 206.563 C 35.362 206.563,35.313 207.055,35.313 207.656 M54.225 207.734 C 53.949 209.205,51.510 214.353,51.334 213.836 C 51.262 213.626,51.692 212.431,52.290 211.180 C 52.888 209.929,53.542 208.379,53.744 207.734 C 53.946 207.090,54.186 206.563,54.278 206.563 C 54.369 206.563,54.346 207.090,54.225 207.734 M35.983 209.106 L 35.681 210.156 35.653 209.193 C 35.638 208.663,35.719 208.135,35.833 208.021 C 36.226 207.628,36.285 208.057,35.983 209.106 " stroke="none" fill="#000000" fill-rule="evenodd"></path></g></svg>